<svg width="183" height="52" viewBox="0 0 183 52" fill="none" xmlns="http://www.w3.org/2000/svg">
<g clip-path="url(#clip0_416_59958)">
<path d="M1.24163 7.79297H3.04199C3.72843 7.79297 4.28362 8.34815 4.28362 9.0346V17.8679C5.61925 15.6915 7.66084 14.6024 10.4066 14.6024C12.5085 14.6024 14.1723 15.2232 15.398 16.4666C16.6219 17.71 17.2356 19.4572 17.2356 21.7081V33.1577C17.2356 33.8441 16.6804 34.3993 15.9939 34.3993H13.8566C13.1701 34.3993 12.6149 33.8441 12.6149 33.1577V22.7298C12.6149 21.4562 12.2868 20.4718 11.6323 19.78C10.976 19.0882 10.0732 18.7406 8.92376 18.7406C7.55087 18.7406 6.43341 19.2106 5.57491 20.1507C4.71464 21.0908 4.28539 22.3715 4.28539 23.9909V33.1577C4.28539 33.8441 3.73021 34.3993 3.04376 34.3993H1.24163C0.555185 34.3993 0 33.8441 0 33.1577V9.0346C0 8.34815 0.555185 7.79297 1.24163 7.79297Z" fill="#F6EFDF"/>
<path d="M21.0989 29.9454C20.2953 28.4483 19.8927 26.7544 19.8927 24.8618C19.8927 22.9692 20.2971 21.2043 21.1077 19.6381C21.9183 18.0737 23.0589 16.8391 24.5311 15.9363C26.0529 15.0459 27.7717 14.6006 29.6891 14.6006C32.3728 14.6006 34.4694 15.4361 35.9789 17.1052C37.4883 18.7743 38.2422 21.144 38.2422 24.2108V24.9541C38.2422 25.6405 37.687 26.1957 37.0006 26.1957H24.5683C24.8149 27.6306 25.4055 28.7215 26.3403 29.47C27.2733 30.2186 28.4954 30.5928 30.0049 30.5928C31.7432 30.5928 33.2154 30.0607 34.4162 28.9947C34.9288 28.5406 35.7217 28.6151 36.1651 29.1366L36.9811 30.0944C37.4032 30.591 37.3766 31.336 36.9048 31.7848C34.9235 33.6738 32.4935 34.6175 29.6146 34.6175C27.6724 34.6175 25.966 34.2095 24.4938 33.3936C23.0216 32.5776 21.8899 31.4265 21.0989 29.9418V29.9454ZM26.1647 19.5743C25.2991 20.3281 24.7546 21.4048 24.5311 22.8025H33.6411C33.6162 21.4172 33.2579 20.3512 32.5644 19.6026C31.8709 18.8541 30.8385 18.4798 29.4657 18.4798C28.0928 18.4798 27.0037 18.8452 26.1629 19.5743H26.1647Z" fill="#F6EFDF"/>
<path d="M60.4638 16.307V33.1577C60.4638 33.8441 59.9086 34.3993 59.2221 34.3993H57.271C56.5846 34.3993 56.0294 33.8441 56.0294 33.1577V31.43C55.4476 32.4446 54.5785 33.2304 53.422 33.7856C52.2655 34.3425 50.9387 34.621 49.4417 34.621C47.5987 34.621 45.9757 34.1669 44.5709 33.257C43.1661 32.3471 42.109 31.1445 41.3977 29.6474C40.6864 28.1504 40.3317 26.4813 40.3317 24.6383C40.3317 23.2654 40.541 21.9706 40.9631 20.752C41.3835 19.5335 41.9777 18.4674 42.744 17.5522C43.5102 16.6369 44.4734 15.9168 45.6299 15.39C46.7864 14.8649 48.0581 14.6006 49.4434 14.6006C50.9653 14.6006 52.3098 14.9093 53.4787 15.5283C54.6476 16.1474 55.46 16.9633 55.9176 17.9779V16.307C55.9176 15.6206 56.4728 15.0654 57.1593 15.0654H59.2221C59.9086 15.0654 60.4638 15.6206 60.4638 16.307ZM44.9718 24.6383C44.9718 26.3819 45.4631 27.7921 46.4476 28.8687C47.4302 29.9454 48.7198 30.4828 50.3161 30.4828C51.9125 30.4828 53.2535 29.9383 54.2681 28.8492C55.2826 27.7619 55.7899 26.3571 55.7899 24.6383C55.7899 22.9196 55.2826 21.4757 54.2681 20.3795C53.2535 19.2851 51.9231 18.737 50.2789 18.737C48.6346 18.737 47.3681 19.2905 46.4103 20.3973C45.4507 21.5041 44.9718 22.9178 44.9718 24.6365V24.6383Z" fill="#F6EFDF"/>
<path d="M63.66 33.1523V9.03106C63.66 8.34461 64.2152 7.78943 64.9017 7.78943H67.0568C67.7432 7.78943 68.2984 8.34461 68.2984 9.03106V33.1541C68.2984 33.8406 67.7432 34.3957 67.0568 34.3957H64.9017C64.2152 34.3957 63.66 33.8406 63.66 33.1541V33.1523Z" fill="#F6EFDF"/>
<path d="M71.4948 15.0618V11.3866C71.4948 10.7001 72.0499 10.145 72.7364 10.145H74.9287C75.6152 10.145 76.1704 10.7001 76.1704 11.3866V15.0618H80.6243C81.3107 15.0618 81.8659 15.617 81.8659 16.3034V17.9956C81.8659 18.682 81.3107 19.2372 80.6243 19.2372H76.1704V27.2901C76.1704 28.2798 76.4506 29.0532 77.0147 29.6101C77.577 30.1671 78.3237 30.4456 79.2496 30.4456C79.8935 30.4456 80.5143 30.3356 81.112 30.1139C81.7666 29.8709 82.492 30.1972 82.7262 30.8535L83.1199 31.9533C83.3239 32.5262 83.0862 33.1718 82.5506 33.4592C81.112 34.2325 79.6221 34.6192 78.0825 34.6192C76.103 34.6192 74.5101 34.0321 73.3058 32.8561C72.0996 31.6819 71.4965 30.0802 71.4965 28.051V19.2372" fill="#F6EFDF"/>
<path d="M86.6479 7.78943H88.803C89.4895 7.78943 90.0447 8.34461 90.0447 9.03106V17.8644C91.3803 15.688 93.4219 14.5989 96.1677 14.5989C98.2696 14.5989 99.9334 15.2197 101.159 16.4631C102.383 17.7065 102.997 19.4536 102.997 21.7045V33.1541C102.997 33.8406 102.441 34.3957 101.755 34.3957H99.6176C98.9312 34.3957 98.376 33.8406 98.376 33.1541V22.7262C98.376 21.4527 98.0479 20.4682 97.3933 19.7765C96.7371 19.0847 95.8342 18.737 94.6848 18.737C93.3119 18.737 92.1945 19.2071 91.336 20.1472C90.4757 21.0873 90.0464 22.3679 90.0464 23.9874V33.1541C90.0464 33.8406 89.4913 34.3957 88.8048 34.3957H86.6497C85.9633 34.3957 85.4081 33.8406 85.4081 33.1541V9.03106C85.4081 8.34461 85.9633 7.78943 86.6497 7.78943H86.6479Z" fill="#F6EFDF"/>
<path d="M108.504 41.7231C107.17 40.854 106.14 39.6744 105.412 38.1898C105.106 37.5619 105.384 36.8027 106.021 36.5154L107.869 35.6835C108.467 35.4139 109.178 35.6533 109.476 36.2369C109.872 37.0085 110.404 37.6346 111.072 38.1135C112.03 38.8 113.173 39.1441 114.496 39.1441C116.043 39.1441 117.279 38.69 118.207 37.7801C119.134 36.8719 119.597 35.6179 119.597 34.0233V30.5166C119.09 31.5808 118.299 32.4091 117.222 33.0034C116.145 33.5976 114.909 33.8938 113.511 33.8938C111.397 33.8938 109.646 33.2322 108.261 31.9089C106.876 30.5857 106.182 28.7428 106.182 26.3802V16.3035C106.182 15.617 106.737 15.0618 107.424 15.0618H109.616C110.303 15.0618 110.858 15.617 110.858 16.3035V25.5447C110.858 26.8431 111.216 27.8701 111.935 28.624C112.651 29.3778 113.623 29.7556 114.847 29.7556C116.257 29.7556 117.401 29.2731 118.279 28.3082C119.157 27.3433 119.597 26.0627 119.597 24.468V16.3035C119.597 15.617 120.152 15.0618 120.839 15.0618H122.994C123.68 15.0618 124.236 15.617 124.236 16.3035V33.4858C124.236 35.4902 123.794 37.2462 122.909 38.7556C122.024 40.2651 120.842 41.4021 119.365 42.1701C117.887 42.9364 116.225 43.3213 114.384 43.3213C112.108 43.3213 110.147 42.7892 108.502 41.7249L108.504 41.7231Z" fill="#F6EFDF"/>
<path d="M182.986 28.5051C183.051 28.2444 182.888 27.9712 182.627 27.9056C182.585 27.8949 182.498 27.8736 182.443 27.9073L179.474 28.3135C177.083 28.6364 175.385 29.8709 174.958 31.5648L174.323 34.0871C174.257 34.3479 174.419 34.6175 174.679 34.6831C174.722 34.6937 174.811 34.7168 174.866 34.6831L177.877 34.2875C180.268 33.9647 181.966 32.7302 182.393 31.0327L182.986 28.5016V28.5051Z" fill="#97CC04"/>
<path d="M139.502 15.0352H137.347C136.661 15.0352 136.105 15.5911 136.105 16.2768V33.1275C136.105 33.8132 136.661 34.3691 137.347 34.3691H139.502C140.188 34.3691 140.744 33.8132 140.744 33.1275V16.2768C140.744 15.5911 140.188 15.0352 139.502 15.0352Z" fill="#F6EFDF"/>
<path d="M143.937 15.0352V13.8113C143.937 11.6101 144.568 9.86294 145.829 8.56988C147.09 7.27681 148.754 6.63116 150.821 6.63116C152.309 6.63116 153.701 6.97173 154.992 7.65107C155.599 7.97035 155.831 8.72065 155.514 9.32727L154.819 10.6558C154.514 11.2394 153.808 11.4806 153.206 11.2092C152.664 10.9644 152.066 10.8403 151.413 10.8403C150.535 10.8403 149.841 11.0939 149.336 11.6012C148.83 12.1085 148.575 12.8322 148.575 13.7723V15.0334H152.232C152.919 15.0334 153.474 15.5886 153.474 16.2751V17.9672C153.474 18.6537 152.919 19.2089 152.232 19.2089H148.575V33.1257C148.575 33.8122 148.02 34.3674 147.333 34.3674H145.178C144.492 34.3674 143.937 33.8122 143.937 33.1257V19.2089" fill="#F6EFDF"/>
<path d="M155.053 29.9152C154.249 28.4182 153.847 26.7243 153.847 24.8317C153.847 22.9391 154.251 21.1742 155.062 19.608C155.872 18.0435 157.013 16.809 158.485 15.9061C160.007 15.0157 161.726 14.5705 163.643 14.5705C166.327 14.5705 168.423 15.4059 169.933 17.075C171.442 18.7441 172.196 21.1139 172.196 24.1807V24.9239C172.196 25.6103 171.641 26.1655 170.954 26.1655H158.522C158.769 27.6005 159.359 28.6914 160.294 29.4399C161.227 30.1884 162.449 30.5627 163.959 30.5627C165.697 30.5627 167.169 30.0305 168.37 28.9645C168.883 28.5104 169.676 28.5849 170.119 29.1064L170.935 30.0642C171.357 30.5609 171.33 31.3059 170.859 31.7546C168.877 33.6437 166.447 34.5873 163.569 34.5873C161.626 34.5873 159.92 34.1793 158.448 33.3634C156.975 32.5475 155.844 31.3963 155.053 29.9117V29.9152ZM160.119 19.5441C159.253 20.2979 158.708 21.3746 158.485 22.7723H167.595C167.57 21.387 167.212 20.321 166.518 19.5725C165.825 18.824 164.792 18.4497 163.42 18.4497C162.047 18.4497 160.958 18.8151 160.117 19.5441H160.119Z" fill="#F6EFDF"/>
<path d="M175.135 37.8723C175.722 38.2643 175.862 39.066 175.447 39.639C169.479 47.8745 159.106 52.465 148.979 51.72C140.932 51.2517 132.597 46.8847 129.42 39.1175C128.338 36.5473 127.858 33.7749 127.849 31.0717V9.00268C127.849 8.31623 128.404 7.76105 129.09 7.76105H131.245C131.932 7.76105 132.487 8.31623 132.487 9.00268V31.07C132.437 35.4032 134.05 39.5787 137.283 42.477C145.845 49.9445 159.826 48.341 168.15 41.2194C169.567 40.0114 170.844 38.6439 171.96 37.1504C172.352 36.6253 173.092 36.5065 173.638 36.8701L175.135 37.8705V37.8723Z" fill="#F6EFDF"/>
<path d="M136.169 7.03913C136.757 6.45734 137.501 6.16644 138.404 6.16644C139.307 6.16644 140.059 6.46089 140.659 7.048C141.258 7.63511 141.558 8.35526 141.558 9.21021C141.558 10.0652 141.258 10.7622 140.659 11.344C140.059 11.9258 139.307 12.2167 138.404 12.2167C137.501 12.2167 136.757 11.9258 136.169 11.344C135.582 10.7622 135.288 10.051 135.288 9.21021C135.288 8.36945 135.582 7.62092 136.169 7.03913Z" fill="#FE4871"/>
</g>
<defs>
<clipPath id="clip0_416_59958">
<rect width="183" height="45.6316" fill="white" transform="translate(0 6.16644)"/>
</clipPath>
</defs>
</svg>
